<svg width="138" height="43" viewBox="0 0 138 43" fill="none" xmlns="http://www.w3.org/2000/svg">
<rect y="21.2132" width="30" height="30" transform="rotate(-45 0 21.2132)" fill="#FFD952"/>
<rect x="11.3923" y="21.6055" width="30" height="30" transform="rotate(-45 11.3923 21.6055)" fill="#FFD952" fill-opacity="0.33"/>
<path d="M71.208 24.632C71.592 24.568 71.88 24.536 72.072 24.536C72.28 24.536 72.72 24.592 73.392 24.704C73.456 24.832 73.544 25.24 73.656 25.928C73.784 26.616 73.848 27.176 73.848 27.608C73.848 28.024 73.8 28.488 73.704 29H62.064L61.848 27.68C62.632 27.36 63.304 27.128 63.864 26.984C63.864 26.936 63.792 22.704 63.648 14.288L61.656 13.664L61.848 12.2H68.088C68.072 12.2 68.072 12.216 68.088 12.248C68.12 12.28 68.152 12.352 68.184 12.464C68.232 12.56 68.28 12.68 68.328 12.824C68.424 13.08 68.488 13.504 68.52 14.096C67.704 14.224 67.168 14.304 66.912 14.336C66.848 19.856 66.808 23.976 66.792 26.696H70.68L71.208 24.632ZM79.4591 29.288C78.0991 29.288 77.0431 29.008 76.2911 28.448C75.5551 27.888 75.1871 26.944 75.1871 25.616C75.1871 24.352 75.6271 23.32 76.5071 22.52C77.0191 22.056 77.7311 21.784 78.6431 21.704C79.5551 21.624 80.8111 21.584 82.4111 21.584V21.2C82.4111 20.224 82.2511 19.512 81.9311 19.064C81.6271 18.6 81.0831 18.368 80.2991 18.368C79.8991 18.368 79.5391 18.448 79.2191 18.608L78.6431 20.696L76.8671 20.648C76.4671 20.04 76.2511 19.072 76.2191 17.744C76.5391 17.584 77.2911 17.344 78.4751 17.024C79.6591 16.688 80.4191 16.52 80.7551 16.52C82.4831 16.52 83.7391 16.88 84.5231 17.6C85.3071 18.304 85.6991 19.432 85.6991 20.984C85.6991 22.52 85.6271 24.552 85.4831 27.08C86.3951 27.16 87.0991 27.296 87.5951 27.488C87.6111 27.68 87.6191 27.912 87.6191 28.184L87.5951 28.712C86.4431 29.096 85.2831 29.288 84.1151 29.288C83.8111 29.288 83.5871 29.28 83.4431 29.264C83.2031 28.784 83.0591 28.208 83.0111 27.536H82.8911C82.5871 27.824 82.0511 28.192 81.2831 28.64C80.5311 29.072 79.9231 29.288 79.4591 29.288ZM78.2591 25.76C78.2591 26.288 78.4191 26.68 78.7391 26.936C79.0751 27.176 79.4511 27.296 79.8671 27.296C80.2831 27.296 80.7791 27.112 81.3551 26.744C81.9311 26.36 82.3951 26.016 82.7471 25.712L82.6271 23.504C81.3631 23.568 80.4111 23.688 79.7711 23.864C78.7631 24.072 78.2591 24.704 78.2591 25.76ZM95.8766 16.52C97.4766 16.52 98.6366 16.912 99.3566 17.696C100.077 18.48 100.437 19.576 100.437 20.984C100.437 22.392 100.357 24.296 100.197 26.696L102.093 26.912C102.093 27.568 101.909 28.264 101.541 29H95.5646L95.3486 27.68C96.1006 27.376 96.7966 27.136 97.4366 26.96C97.3886 25.12 97.3406 23.576 97.2926 22.328C97.2446 21.064 97.1246 20.208 96.9326 19.76C96.7406 19.312 96.3166 19.088 95.6606 19.088C94.6686 19.088 93.7806 19.264 92.9966 19.616C92.9806 20.304 92.9326 21.432 92.8526 23C92.7886 24.552 92.7486 25.784 92.7326 26.696L94.6046 26.912C94.6046 27.568 94.4206 28.264 94.0526 29H88.0766L87.8606 27.68C88.6606 27.376 89.3806 27.136 90.0206 26.96C90.0046 26 89.9486 24.672 89.8526 22.976C89.7726 21.28 89.7246 20.024 89.7086 19.208C89.1166 19.144 88.4846 19.024 87.8126 18.848L87.9326 17.12C89.0526 16.816 90.3166 16.664 91.7246 16.664C91.9006 16.776 92.1406 17.12 92.4446 17.696C92.9886 17.424 93.6526 17.16 94.4366 16.904C95.2206 16.648 95.7006 16.52 95.8766 16.52ZM113.426 11.168C113.73 11.168 113.922 11.176 114.002 11.192C114.002 12.024 113.898 12.752 113.69 13.376C113.626 15.104 113.546 17.568 113.45 20.768C113.37 23.952 113.314 26.056 113.282 27.08C114.226 27.208 114.93 27.344 115.394 27.488V28.64C114.386 29.072 113.002 29.288 111.242 29.288C111.146 29.112 111.018 28.68 110.858 27.992C109.386 28.792 108.322 29.224 107.666 29.288C106.034 29.288 104.81 28.696 103.994 27.512C103.194 26.328 102.794 24.808 102.794 22.952C102.794 21.08 103.202 19.512 104.018 18.248C104.834 16.968 106.042 16.328 107.642 16.328C108.522 16.328 109.45 16.6 110.426 17.144L110.306 13.64C109.554 13.56 108.922 13.44 108.41 13.28C108.41 12.88 108.466 12.304 108.578 11.552C109.522 11.296 111.138 11.168 113.426 11.168ZM108.026 18.68C106.65 18.68 105.962 20.008 105.962 22.664C105.962 24.184 106.234 25.328 106.778 26.096C107.082 26.544 107.474 26.768 107.954 26.768C108.77 26.768 109.69 26.488 110.714 25.928L110.498 19.736C109.586 19.032 108.762 18.68 108.026 18.68ZM121.236 16.712C121.54 16.712 121.732 16.72 121.812 16.736C121.812 17.52 121.676 18.248 121.404 18.92C121.34 22.376 121.3 24.968 121.284 26.696L123.156 26.912C123.156 27.568 122.972 28.264 122.604 29H116.628L116.412 27.68C117.404 27.312 118.124 27.072 118.572 26.96L118.308 19.184C117.364 19.088 116.668 18.968 116.22 18.824C116.22 18.424 116.276 17.848 116.388 17.096C117.332 16.84 118.948 16.712 121.236 16.712ZM121.236 12.176C121.38 12.896 121.452 13.448 121.452 13.832C121.452 14.2 121.42 14.616 121.356 15.08C120.716 15.224 120.172 15.296 119.724 15.296C119.292 15.296 118.764 15.272 118.14 15.224C117.996 14.504 117.924 13.96 117.924 13.592C117.924 13.208 117.956 12.784 118.02 12.32C118.66 12.176 119.196 12.104 119.628 12.104C120.076 12.104 120.612 12.128 121.236 12.176ZM131.619 16.52C133.219 16.52 134.379 16.912 135.099 17.696C135.819 18.48 136.179 19.576 136.179 20.984C136.179 22.392 136.099 24.296 135.939 26.696L137.835 26.912C137.835 27.568 137.651 28.264 137.283 29H131.307L131.091 27.68C131.843 27.376 132.539 27.136 133.179 26.96C133.131 25.12 133.083 23.576 133.035 22.328C132.987 21.064 132.867 20.208 132.675 19.76C132.483 19.312 132.059 19.088 131.403 19.088C130.411 19.088 129.523 19.264 128.739 19.616C128.723 20.304 128.675 21.432 128.595 23C128.531 24.552 128.491 25.784 128.475 26.696L130.347 26.912C130.347 27.568 130.163 28.264 129.795 29H123.819L123.603 27.68C124.403 27.376 125.123 27.136 125.763 26.96C125.747 26 125.691 24.672 125.595 22.976C125.515 21.28 125.467 20.024 125.451 19.208C124.859 19.144 124.227 19.024 123.555 18.848L123.675 17.12C124.795 16.816 126.059 16.664 127.467 16.664C127.643 16.776 127.883 17.12 128.187 17.696C128.731 17.424 129.395 17.16 130.179 16.904C130.963 16.648 131.443 16.52 131.619 16.52Z" fill="white"/>
</svg>
